<svg xmlns="http://www.w3.org/2000/svg" viewBox="0 0 180 155">
  <g fill="#CC0000" fill-rule="evenodd" transform="translate(8 8)">
    <path d="M7,139.6 L86,139.6 C86,139.6 70.9,70.7 120.9,42.8 C131.8,37.5 166.5,17.7 223.3,59.7 C225.1,58.2 226.8,57 226.8,57 C226.8,57 174.8,5.1 116.9,10.9 C87.8,13.5 52,40 31,75 C10,110 7,139.6 7,139.6 Z"/>
    <path d="M7,139.6 L86,139.6 C86,139.6 70.9,70.7 120.9,42.8 C131.8,37.5 166.5,17.7 223.3,59.7 C225.1,58.2 226.8,57 226.8,57 C226.8,57 174.8,5.1 116.9,10.9 C87.8,13.5 52,40 31,75 C10,110 7,139.6 7,139.6 Z"/>
    <path d="M7 139.6L86 139.6C86 139.6 70.9 70.7 120.9 42.8 131.8 37.5 166.5 17.7 223.3 59.7 225.1 58.2 226.8 57 226.8 57 226.8 57 174.8 5.1 116.9 10.9 87.7 13.5 51.9 40 30.9 75 9.9 110 7 139.6 7 139.6zM171.6 16.5L172 9.8C171.1 9.3 168.6 8.1 162.3 6.3L161.9 12.9C165.2 14 168.4 15.2 171.6 16.5z"/>
    <path d="M162.1 37.7L161.7 44C165 44.1 168.3 44.5 171.6 45.2L172 39C168.6 38.3 165.3 37.9 162.1 37.7zM125.1 6.5L126.1 6.5 124.1.4C121 .4 117.8.6 114.5 1L116.4 6.9C119.3 6.6 122.2 6.5 125.1 6.5zM129.9 43.3L132.2 50.2C135.1 48.8 138 47.6 140.9 46.7L138.7 40.1C135.3 41.1 132.4 42.2 129.9 43.3zM84.5 17L80 10.1C77.5 11.4 74.9 12.8 72.2 14.4L76.8 21.4C79.4 19.8 81.9 18.3 84.5 17zM105 62L109.8 69.2C111.5 66.7 113.5 64.4 115.7 62.1L111.2 55.3C108.9 57.4 106.8 59.7 105 62zM90.5 94.2L98.6 100.6C99 96.7 99.7 92.8 100.7 88.9L93.5 83.2C92.2 86.9 91.3 90.6 90.5 94.2zM46.7 46.7L39.6 40.5C37 43 34.5 45.5 32.2 48L39.9 54.6C42 51.9 44.3 49.2 46.7 46.7zM16.5 91.4L5 87.2C3.1 91.5 1 96.5 0 99.2L11.5 103.4C12.8 100 14.9 95.1 16.5 91.4zM89 119.6C89.2 124.9 89.7 129.2 90.2 132.2L102.2 136.5C101.3 132.6 100.4 128.2 99.8 123.5L89 119.6z"/>
  </g>
</svg>
